PathFileType	4	(x/y/z)	S02_P20_T24
DataRate	CameraRate	NumFrames	NumMarkers	Units	OrigDataRate	OrigDataStartFrame	OrigNumFrames
240	240	11	51	mm	240	265	353
Frame#	Time	Sternum			R.Acromium			L.Acromium			Top.Head			R.ASIS			L.ASIS			R.PSIS			L.PSIS			R.Great.Tro			L.Great.Tro			R.Iliac.Crest			L.Iliac.Crest			V.Sacral			R.Thigh.Upper.Post			R.Thigh.Lower.Ant			R.Thigh.Lower.Post			R.Thigh.Upper.Ant			R.Knee.Lat			R.Knee.Med			R.Shank.Upper.Post			R.Shank.Lower.Ant			R.Shank.Lower.Post			R.Shank.Upper.Ant			R.Ankle.Lat			R.Ankle.Med			R.Heel.Upper			R.Heel.Med			R.Heel.Lat			R.Toe.Lat			R.Toe.Med			R.Toe.Tip			L.Thigh.Upper.Post			L.Thigh.Lower.Ant			L.Thigh.Lower.Post			L.Thigh.Upper.Ant			L.Knee.Lat			L.Knee.Med			L.Shank.Upper.Post			L.Shank.Lower.Ant			L.Shank.Lower.Post			L.Shank.Upper.Ant			L.Ankle.Lat			L.Ankle.Med			L.Heel.Upper			L.Heel.Med			L.Heel.Lat			L.Toe.Lat			L.Toe.Med			L.Toe.Tip			Cervical.Spine			Back			
		X1	Y1	Z1	X2	Y2	Z2	X3	Y3	Z3	X4	Y4	Z4	X5	Y5	Z5	X6	Y6	Z6	X7	Y7	Z7	X8	Y8	Z8	X9	Y9	Z9	X10	Y10	Z10	X11	Y11	Z11	X12	Y12	Z12	X13	Y13	Z13	X14	Y14	Z14	X15	Y15	Z15	X16	Y16	Z16	X17	Y17	Z17	X18	Y18	Z18	X19	Y19	Z19	X20	Y20	Z20	X21	Y21	Z21	X22	Y22	Z22	X23	Y23	Z23	X24	Y24	Z24	X25	Y25	Z25	X26	Y26	Z26	X27	Y27	Z27	X28	Y28	Z28	X29	Y29	Z29	X30	Y30	Z30	X31	Y31	Z31	X32	Y32	Z32	X33	Y33	Z33	X34	Y34	Z34	X35	Y35	Z35	X36	Y36	Z36	X37	Y37	Z37	X38	Y38	Z38	X39	Y39	Z39	X40	Y40	Z40	X41	Y41	Z41	X42	Y42	Z42	X43	Y43	Z43	X44	Y44	Z44	X45	Y45	Z45	X46	Y46	Z46	X47	Y47	Z47	X48	Y48	Z48	X49	Y49	Z49	X50	Y50	Z50	X51	Y51	Z51	

265	1.1	141.05	1094.6	332.59	23.172	1330	468.15	29.557	1326.6	171.25	91.869	1613.7	310.78	93.26	912.54	438.51	116.06	915.11	227.84	-114.27	949.76	370.09	-116.06	959.51	296.79	16.614	795.21	523.42	3.5814	829.08	131.31	-9.816	956.39	490.31	-4.9797	965.22	154	-137.86	905.86	323.05	53.388	595.47	522.24	125.75	523.85	507.57	54.002	505.48	509.41	121.96	613.58	517.35	76.686	432.68	505.8	98.775	411.02	361.91	-112.85	358.49	475.22	-133.15	250.35	459.64	-167.06	309.38	462.69	-80.189	293.2	479.18	-232.01	233.93	448.58	-199.59	238.67	367.01	-261.49	285.13	392.39	-277.62	264.41	356.52	-295.17	266.09	419.42	-240.34	113.21	456.88	-206.81	94.878	353.86	-172.1	58.118	413.72	29.176	590.06	164.8	121.85	532.11	179.75	48.568	505.2	193.03	93.928	619.18	152.35	122.26	450.08	196	112.27	456.34	333.14	33.913	281.98	203.1	98.632	193.49	227.18	28.085	210.58	223.18	97.883	267.45	206.63	45.475	97.353	243.72	58.216	96.931	325.17	-14.083	64.658	279.03	-5.1557	39.378	313.47	-7.909	36.287	251.46	158.56	35.022	221.32	180	46.525	331.07	239.26	63.143	283.67	-48.14	1389.4	317.79	-119.01	1136	329.54
266	1.1042	146.34	1095.6	332.62	28.389	1331.1	468.06	35.069	1327.5	171.13	97.397	1614.7	310.57	98.463	913.62	438.27	121.07	915.69	227.5	-109.05	951.03	369.84	-110.88	960.76	296.54	22.029	796.58	523.24	7.9621	829.86	131.26	-4.5926	957.48	490.1	0.088208	966.02	153.67	-132.81	907.18	322.84	62.217	597.45	522.61	135.51	526.7	507.95	63.923	507.46	509.9	130.57	616.37	517.52	87.627	435	506.24	109.31	413.56	362.16	-101.49	359.71	475.15	-121.04	251.45	459.65	-155.38	310.26	462.59	-68.426	294.66	479.24	-219.8	234.76	448.34	-187.27	239.19	366.82	-249.7	285.11	391.62	-265.49	263.91	355.9	-283.22	265.93	418.73	-226.81	114.16	457.65	-192.84	95.252	354.86	-157.87	59.314	415.15	31.627	590.81	164.69	123.79	532.06	179.69	50.268	505.77	192.84	96.654	619.39	152.32	123.42	449.98	195.93	113.25	456.25	333.1	34.327	282.13	203.16	98.842	193.45	227.07	28.348	210.75	223.23	98.263	267.41	206.55	45.538	97.439	243.69	58.311	97.034	325.16	-14.079	64.728	279.03	-5.1362	39.475	313.46	-7.8894	36.357	251.46	158.57	35.018	221.31	180.02	46.512	331.07	239.3	63.088	283.66	-42.718	1390.5	317.56	-113.71	1137.1	329.08
267	1.1083	151.61	1096.6	332.65	33.63	1332.2	467.97	40.581	1328.5	171.03	102.92	1615.8	310.39	103.67	914.72	438.02	126.08	916.22	227.19	-103.79	952.35	369.58	-105.67	962.05	296.29	27.423	797.99	523.07	12.328	830.61	131.24	0.66678	958.63	489.89	5.1793	966.8	153.36	-127.76	908.57	322.64	71.042	599.49	522.95	145.22	529.62	508.23	73.821	509.52	510.35	139.14	619.21	517.61	98.505	437.36	506.6	119.74	416.19	362.34	-90.161	360.76	475.02	-108.82	252.35	459.62	-143.65	310.88	462.45	-56.609	295.99	479.25	-207.45	235.26	448.08	-174.86	239.42	366.61	-237.88	284.69	390.85	-253.3	262.97	355.3	-271.19	265.31	418.06	-212.92	114.78	458.4	-178.54	95.381	355.83	-143.22	60.379	416.51	34.04	591.58	164.61	125.68	532.01	179.65	51.93	506.36	192.69	99.334	619.6	152.32	124.52	449.9	195.88	114.3	456.18	333.08	34.729	282.28	203.23	99.044	193.43	226.97	28.602	210.93	223.29	98.631	267.4	206.49	45.601	97.533	243.66	58.409	97.143	325.14	-14.075	64.808	279.03	-5.1179	39.577	313.46	-7.8696	36.435	251.47	158.59	35.012	221.31	180.05	46.498	331.06	239.34	63.027	283.65	-37.294	1391.6	317.36	-108.42	1138.2	328.62
268	1.1125	156.86	1097.5	332.68	38.894	1333.2	467.9	46.096	1329.5	170.95	108.44	1616.9	310.24	108.88	915.85	437.78	131.09	916.72	226.89	-98.508	953.73	369.32	-100.45	963.36	296.04	32.803	799.41	522.9	16.676	831.34	131.25	5.965	959.84	489.68	10.289	967.56	153.06	-122.7	910	322.45	79.854	601.6	523.25	154.89	532.6	508.41	83.689	511.65	510.76	147.69	622.11	517.63	109.31	439.76	506.87	130.08	418.9	362.46	-78.864	361.62	474.86	-96.492	253.06	459.56	-131.88	311.24	462.28	-44.743	297.18	479.2	-194.96	235.43	447.82	-162.36	239.37	366.38	-226.02	283.87	390.1	-241.05	261.63	354.72	-259.07	264.24	417.43	-198.69	115.1	459.13	-163.95	95.273	356.75	-128.2	61.302	417.8	36.421	592.35	164.57	127.53	531.96	179.63	53.559	506.95	192.59	101.97	619.81	152.34	125.58	449.85	195.84	115.42	456.14	333.1	35.123	282.44	203.3	99.24	193.42	226.89	28.85	211.11	223.34	98.989	267.4	206.44	45.663	97.635	243.62	58.512	97.258	325.13	-14.068	64.897	279.02	-5.101	39.682	313.45	-7.8495	36.521	251.48	158.6	35.003	221.31	180.07	46.483	331.06	239.39	62.96	283.64	-31.866	1392.7	317.17	-103.13	1139.4	328.16
269	1.1167	162.09	1098.4	332.71	44.181	1334.3	467.82	51.614	1330.4	170.89	113.96	1617.9	310.12	114.1	917	437.52	136.11	917.19	226.61	-93.2	955.15	369.07	-95.218	964.7	295.78	38.179	800.85	522.74	21.005	832.05	131.26	11.303	961.12	489.47	15.414	968.3	152.78	-117.64	911.48	322.28	88.645	603.76	523.53	164.5	535.64	508.49	93.518	513.84	511.13	156.2	625.04	517.57	120.04	442.19	507.05	140.33	421.67	362.52	-67.599	362.28	474.66	-84.063	253.56	459.48	-120.07	311.35	462.08	-32.832	298.23	479.12	-182.35	235.26	447.57	-149.78	239.04	366.15	-214.12	282.68	389.37	-228.73	259.9	354.18	-246.86	262.75	416.84	-184.15	115.11	459.84	-149.07	94.94	357.64	-112.83	62.077	419	38.772	593.12	164.57	129.34	531.92	179.62	55.157	507.56	192.53	104.57	620.02	152.39	126.58	449.82	195.81	116.6	456.12	333.13	35.509	282.62	203.37	99.43	193.44	226.81	29.09	211.3	223.39	99.338	267.43	206.4	45.725	97.745	243.59	58.62	97.379	325.12	-14.06	64.996	279.02	-5.0857	39.791	313.45	-7.8292	36.613	251.49	158.61	34.993	221.3	180.1	46.467	331.05	239.44	62.889	283.63	-26.436	1393.9	317	-97.861	1140.5	327.7
270	1.1208	167.31	1099.3	332.73	49.49	1335.4	467.75	57.136	1331.4	170.86	119.47	1618.9	310.02	119.32	918.18	437.26	141.13	917.64	226.35	-87.871	956.6	368.81	-89.968	966.06	295.52	43.559	802.31	522.58	25.311	832.73	131.3	16.68	962.44	489.25	20.548	969.02	152.51	-112.58	912.98	322.14	97.407	605.95	523.77	174.04	538.71	508.47	103.3	516.08	511.46	164.66	628	517.43	130.68	444.65	507.15	150.51	424.49	362.52	-56.364	362.76	474.44	-71.54	253.87	459.38	-108.23	311.22	461.87	-20.881	299.14	479	-169.61	234.77	447.32	-137.11	238.45	365.91	-202.17	281.11	388.67	-216.35	257.79	353.69	-234.55	260.84	416.31	-169.31	114.83	460.53	-133.93	94.395	358.47	-97.149	62.704	420.13	41.096	593.9	164.61	131.12	531.88	179.64	56.728	508.19	192.51	107.14	620.23	152.45	127.53	449.81	195.78	117.83	456.11	333.17	35.889	282.81	203.44	99.615	193.47	226.75	29.323	211.5	223.44	99.678	267.47	206.37	45.788	97.862	243.56	58.733	97.506	325.11	-14.049	65.104	279.02	-5.0721	39.903	313.44	-7.8086	36.713	251.51	158.63	34.981	221.3	180.13	46.451	331.04	239.48	62.814	283.62	-21.004	1395	316.85	-92.594	1141.7	327.24
271	1.125	172.51	1100.2	332.75	54.818	1336.5	467.68	62.664	1332.4	170.84	124.97	1620	309.95	124.55	919.37	436.99	146.15	918.08	226.09	-82.522	958.08	368.57	-84.707	967.42	295.28	48.951	803.77	522.42	29.595	833.41	131.34	22.093	963.82	489.02	25.686	969.73	152.26	-107.5	914.51	322.01	106.13	608.18	523.99	183.49	541.81	508.37	113.02	518.37	511.75	173.07	630.97	517.23	141.22	447.11	507.18	160.61	427.35	362.47	-45.161	363.05	474.2	-58.929	253.99	459.26	-96.347	310.83	461.65	-8.8939	299.92	478.84	-156.75	233.97	447.09	-124.37	237.6	365.68	-190.16	279.2	388.02	-203.9	255.32	353.25	-222.14	258.54	415.83	-154.2	114.28	461.19	-118.54	93.653	359.26	-81.176	63.186	421.16	43.397	594.69	164.68	132.87	531.83	179.67	58.274	508.82	192.53	109.67	620.44	152.53	128.45	449.81	195.76	119.11	456.12	333.23	36.261	283.01	203.52	99.795	193.52	226.69	29.547	211.71	223.51	100.01	267.53	206.34	45.851	97.985	243.53	58.853	97.638	325.11	-14.037	65.22	279.01	-5.06	40.018	313.44	-7.7876	36.82	251.52	158.64	34.968	221.3	180.15	46.434	331.04	239.53	62.735	283.6	-15.569	1396.1	316.7	-87.331	1142.9	326.78
272	1.1292	177.69	1101	332.76	60.165	1337.5	467.6	68.197	1333.4	170.84	130.47	1621	309.9	129.79	920.58	436.7	151.17	918.5	225.84	-77.157	959.58	368.34	-79.437	968.78	295.04	54.363	805.23	522.26	33.858	834.07	131.39	27.538	965.24	488.78	30.826	970.42	152.04	-102.42	916.05	321.91	114.81	610.42	524.17	192.86	544.93	508.17	122.67	520.68	511.99	181.4	633.95	516.97	151.65	449.58	507.13	170.64	430.24	362.37	-33.988	363.15	473.94	-46.234	253.93	459.14	-84.43	310.22	461.42	3.1241	300.56	478.67	-143.77	232.86	446.88	-111.55	236.5	365.46	-178.1	276.94	387.43	-191.37	252.52	352.86	-209.63	255.85	415.43	-138.82	113.46	461.83	-102.91	92.731	360	-64.934	63.531	422.11	45.677	595.47	164.79	134.59	531.79	179.71	59.798	509.46	192.59	112.18	620.64	152.62	129.34	449.83	195.76	120.4	456.13	333.3	36.627	283.22	203.6	99.97	193.58	226.64	29.761	211.92	223.57	100.32	267.6	206.33	45.915	98.114	243.51	58.981	97.775	325.11	-14.021	65.345	279.01	-5.0493	40.135	313.44	-7.7662	36.934	251.54	158.66	34.954	221.3	180.18	46.417	331.03	239.58	62.653	283.59	-10.134	1397.2	316.57	-82.073	1144	326.33
273	1.1333	182.86	1101.9	332.77	65.527	1338.6	467.52	73.736	1334.3	170.85	135.97	1622	309.87	135.04	921.81	436.39	156.2	918.93	225.6	-71.779	961.09	368.12	-74.16	970.13	294.82	59.8	806.7	522.1	38.101	834.72	131.46	33.01	966.69	488.53	35.964	971.1	151.84	-97.338	917.59	321.85	123.43	612.67	524.32	202.11	548.04	507.9	132.24	523.01	512.19	189.66	636.92	516.64	161.97	452.04	507.02	180.6	433.16	362.22	-22.845	363.07	473.68	-33.459	253.7	459	-72.478	309.38	461.19	15.17	301.07	478.47	-130.68	231.45	446.7	-98.645	235.16	365.26	-165.98	274.36	386.89	-178.76	249.39	352.54	-197.02	252.8	415.09	-123.18	112.41	462.45	-87.045	91.645	360.69	-48.439	63.749	422.98	47.94	596.26	164.93	136.28	531.74	179.77	61.302	510.1	192.68	114.66	620.84	152.73	130.2	449.86	195.76	121.7	456.16	333.38	36.984	283.45	203.7	100.14	193.66	226.59	29.964	212.14	223.65	100.63	267.7	206.33	45.98	98.249	243.49	59.117	97.915	325.11	-14.001	65.478	279.01	-5.0394	40.254	313.44	-7.7441	37.055	251.56	158.67	34.939	221.3	180.2	46.399	331.03	239.64	62.569	283.58	-4.6963	1398.3	316.45	-76.817	1145.2	325.87
274	1.1375	188.01	1102.7	332.77	70.902	1339.6	467.44	79.281	1335.3	170.88	141.46	1623	309.86	140.29	923.05	436.06	161.21	919.36	225.36	-66.392	962.59	367.93	-68.878	971.47	294.62	65.269	808.16	521.94	42.327	835.36	131.53	38.505	968.17	488.26	41.096	971.77	151.66	-92.243	919.12	321.81	131.98	614.92	524.44	211.26	551.15	507.54	141.72	525.35	512.35	197.83	639.87	516.26	172.17	454.5	506.84	190.48	436.09	362.02	-11.732	362.81	473.41	-20.609	253.3	458.86	-60.488	308.32	460.98	27.24	301.45	478.25	-117.47	229.76	446.54	-85.66	233.6	365.08	-153.78	271.46	386.41	-166.05	245.95	352.28	-184.29	249.4	414.83	-107.3	111.12	463.05	-70.96	90.412	361.34	-31.707	63.852	423.76	50.189	597.04	165.1	137.95	531.7	179.83	62.79	510.76	192.8	117.11	621.02	152.85	131.05	449.91	195.78	123	456.19	333.47	37.333	283.7	203.81	100.3	193.75	226.55	30.155	212.37	223.74	100.92	267.8	206.33	46.047	98.388	243.47	59.262	98.059	325.11	-13.977	65.618	279.01	-5.0296	40.375	313.44	-7.7213	37.182	251.58	158.69	34.925	221.29	180.22	46.38	331.02	239.69	62.482	283.56	0.74212	1399.3	316.34	-71.561	1146.3	325.43
275	1.1417	193.15	1103.4	332.76	76.286	1340.6	467.36	84.83	1336.3	170.93	146.94	1623.9	309.88	145.54	924.3	435.71	166.22	919.79	225.12	-61	964.09	367.76	-63.595	972.79	294.44	70.773	809.61	521.77	46.537	835.98	131.62	44.019	969.67	487.99	46.221	972.44	151.51	-87.139	920.63	321.8	140.46	617.15	524.53	220.3	554.23	507.11	151.11	527.68	512.45	205.91	642.8	515.83	182.24	456.95	506.6	200.28	439.02	361.78	-0.64651	362.37	473.14	-7.6851	252.74	458.71	-48.462	307.05	460.77	39.332	301.71	478.03	-104.15	227.8	446.41	-72.589	231.82	364.92	-141.51	268.26	386	-153.25	242.22	352.09	-171.44	245.67	414.64	-91.183	109.63	463.63	-54.66	89.049	361.95	-14.753	63.853	424.46	52.428	597.82	165.3	139.6	531.64	179.91	64.263	511.42	192.96	119.55	621.19	152.97	131.89	449.96	195.81	124.27	456.23	333.56	37.674	283.97	203.93	100.46	193.86	226.52	30.333	212.6	223.84	101.2	267.93	206.33	46.115	98.533	243.46	59.416	98.206	325.12	-13.948	65.764	279.01	-5.0187	40.497	313.45	-7.6975	37.316	251.6	158.7	34.91	221.29	180.25	46.36	331.02	239.74	62.394	283.55	6.1817	1400.4	316.24	-66.305	1147.4	324.98
